<svg id="Calque_1" data-name="Calque 1" xmlns="http://www.w3.org/2000/svg" xmlns:xlink="http://www.w3.org/1999/xlink" viewBox="0 0 1000 1000"><defs><style>.cls-1{fill:url(#Dégradé_sans_nom_12);}.cls-2{fill:#fff;}</style><linearGradient id="Dégradé_sans_nom_12" x1="119.75" y1="875.75" x2="872.25" y2="123.25" gradientUnits="userSpaceOnUse"><stop offset="0" stop-color="#833ab4"/><stop offset="0.04" stop-color="#8b38ab"/><stop offset="0.1" stop-color="#9f3391"/><stop offset="0.19" stop-color="#c12b68"/><stop offset="0.28" stop-color="#ef202f"/><stop offset="0.31" stop-color="#fd1d1d"/><stop offset="0.99" stop-color="#fcb045"/></linearGradient></defs><rect id="Fond_Dégradé" data-name="Fond Dégradé" class="cls-1" x="78" y="165" width="836" height="669"/><path class="cls-2" d="M649.85,625.06A48,48,0,0,0,613.21,641q-14.81,15.9-15.68,40.41H702.35q-1.94-20.77-9-33.22Q680.33,625.06,649.85,625.06Z" transform="translate(0 -3)"/><path class="cls-2" d="M594,284.3q-13-23.1-43.52-23.1a48.07,48.07,0,0,0-36.64,15.9Q499.07,293,498.19,317.52H603Q601.08,296.75,594,284.3Z" transform="translate(0 -3)"/><path class="cls-2" d="M0,3V1003H1000V3ZM195.05,237.57h30.38v32.87q3.73-9.58,18.3-23.36t33.58-13.77c.59,0,1.6.06,3,.18s3.85.35,7.28.71V268a49.26,49.26,0,0,0-5.24-.71c-1.6-.11-3.35-.17-5.24-.17q-24.17,0-37.13,15.54a54.26,54.26,0,0,0-13,35.8V427.85h-32Zm-99.52,0H121.3V184.45h32.33v53.12H184v26.12H153.63V387.88q0,9.94,6.75,13.32,3.74,2,12.44,2c1.54,0,3.2,0,5-.12s3.85-.28,6.22-.59v25.4a70.47,70.47,0,0,1-11.46,2.31,107.65,107.65,0,0,1-12.88.71q-22.38,0-30.38-11.45t-8-29.76v-126H95.53Zm147.14,543Q223.16,799,183.22,799q-43,0-60.89-19.28T103.17,732h30.74q1.46,16,8.16,24.52Q154.4,772,184.86,772q18.13,0,31.92-7.72t13.78-23.9q0-12.25-11-18.65-7-3.91-27.8-9.07l-25.82-6.39q-24.73-6-36.47-13.5-21-13-20.95-35.89,0-27,19.72-43.71t53-16.7q43.57,0,62.84,25.23,12.06,16,11.71,34.47h-30.2a36.29,36.29,0,0,0-7.82-19.62Q206.49,624,178.66,624q-18.56,0-28.1,6.9T141,649.14q0,12.39,12.54,19.82,7.24,4.44,21.36,7.81l21.54,5.15q35.13,8.36,47.07,16.17,18.66,12.25,18.65,38.55Q262.18,762.05,242.67,780.52Zm64.84,11.2H275V602.32h32.51Zm0-224.75H275V530.72h32.51Zm-6.88-161.15q-7.85-14.56-7.84-38.91V237.57h32.69V363.89q0,14.58,4.5,23.81,8.29,17.06,31,17.06,32.52,0,44.29-29.85,6.4-16,6.41-43.88V237.57h32V427.85h-30.2l.36-28.07a64.22,64.22,0,0,1-15.18,18.3Q380.65,433,355,433,315.11,433,300.63,405.82Zm178.53,385.9H319.79V766.49L432.78,630H328.14V601.43H475.78v26.12L363.52,763.11H479.16Zm59.72,0H501.74V753h37.14Zm-51.15-383q-24.54-25.86-24.54-72.4,0-45.84,24.72-74.45t64.63-28.6a85.91,85.91,0,0,1,39,9.5q18.88,9.51,28.78,24.61,9.54,14.4,12.72,33.58,2.82,13.15,2.82,41.93H497.48q.88,29,13.57,46.59t39.31,17.55q24.85,0,39.67-16.6a56.53,56.53,0,0,0,11.74-22.31h31.45Q632,378.65,625,391.52a84,84,0,0,1-15.65,21.06q-14.46,14.21-35.8,19.18a107.68,107.68,0,0,1-25.92,2.85Q512.27,434.61,487.73,408.76ZM610.39,753.38q12.69,17.55,39.31,17.55,24.85,0,39.66-16.6A56.55,56.55,0,0,0,701.11,732h31.44q-1.24,10.49-8.26,23.36a84.28,84.28,0,0,1-15.65,21.06q-14.48,14.2-35.8,19.18a107.68,107.68,0,0,1-25.92,2.85q-35.31,0-59.85-25.85t-24.54-72.4q0-45.84,24.72-74.44t64.62-28.61a85.84,85.84,0,0,1,39,9.51q18.89,9.5,28.78,24.6,9.54,14.4,12.71,33.58,2.82,13.15,2.83,41.93H596.82Q597.69,735.83,610.39,753.38Zm271.27,27.14Q862.15,799,822.21,799q-43,0-60.88-19.28T742.17,732H772.9q1.46,16,8.16,24.52Q793.39,772,823.86,772q18.14,0,31.91-7.72t13.79-23.9q0-12.25-11-18.65-7-3.91-27.8-9.07l-25.82-6.39q-24.74-6-36.48-13.5-20.94-13-20.94-35.89,0-27,19.71-43.71t53-16.7q43.57,0,62.83,25.23,12.07,16,11.71,34.47h-30.2a36.21,36.21,0,0,0-7.82-19.62Q845.48,624,817.66,624q-18.55,0-28.1,6.9T780,649.14q0,12.39,12.55,19.82,7.23,4.44,21.36,7.81l21.54,5.15q35.12,8.36,47.07,16.17,18.65,12.25,18.65,38.55Q901.18,762.05,881.66,780.52Z" transform="translate(0 -3)"/></svg>