<svg id="Calque_1" data-name="Calque 1" xmlns="http://www.w3.org/2000/svg" viewBox="0 0 1000 1000"><defs><style>.cls-1{fill:#f0ad4e;}</style></defs><line class="cls-1" x1="908.77" y1="788" x2="999.05" y2="788"/><path class="cls-1" d="M500,1000c168.91,0,318.25-83.76,408.77-212H91.23C181.75,916.24,331.09,1000,500,1000Z"/><path class="cls-1" d="M1000,500a501.63,501.63,0,0,0-13.14-114.35q-64.44,48.51-126.07,72.22-67.45,25.94-142,25.93-84.93,0-191.54-47.6-20.76-9.33-31.15-13.07-72.66-31.72-121.25-42.94A430.68,430.68,0,0,0,278.12,369Q203.54,369,137,396.83T1.63,485.06V459.47Q0,479.53,0,500A500.39,500.39,0,0,0,15.88,625.46H984.12A500.39,500.39,0,0,0,1000,500Z"/><path class="cls-1" d="M291.33,212.41a455.46,455.46,0,0,1,97.18,10.28q47.19,10.27,118,40.14,9.43,3.75,30.19,14,109.47,50.43,197.21,50.42,66,0,130.68-28.31,35.78-15.65,73.11-40.84C852.43,104.19,688.38,0,500,0,299.31,0,126.23,118.24,46.63,288.86q49.86-32.55,97.47-50.49Q213,212.44,291.33,212.41Z"/></svg>