<svg id="Calque_1" data-name="Calque 1" xmlns="http://www.w3.org/2000/svg" viewBox="0 0 1000 999"><defs><style>.cls-1{fill:#fff;}</style></defs><path d="M851.77,145.68A498.41,498.41,0,0,0,500,1C223.86,1,0,224.86,0,501A498.41,498.41,0,0,0,144.68,852.77Z" transform="translate(0 -1)"/><path d="M853,145.93,145.93,853A498.42,498.42,0,0,0,500,1000c276.14,0,500-223.86,500-500A498.42,498.42,0,0,0,853,145.93Z" transform="translate(0 -1)"/><circle cx="324.33" cy="331.58" r="75.46"/><rect x="303.72" y="181" width="40.07" height="60.1" rx="20.03"/><rect x="304.22" y="421.9" width="40.07" height="60.1" rx="20.03"/><rect x="414.9" y="311.72" width="60.1" height="40.07" rx="20.03"/><rect x="174" y="312.22" width="60.1" height="40.07" rx="20.03"/><rect x="379.44" y="227.62" width="60.1" height="40.07" rx="20.03" transform="translate(-55.18 361.09) rotate(-45)"/><rect x="209.46" y="398.32" width="60.1" height="40.07" rx="20.03" transform="translate(-225.67 290.89) rotate(-45)"/><rect x="218.62" y="218.46" width="40.07" height="60.1" rx="20.03" transform="translate(-105.82 240.54) rotate(-45)"/><rect x="389.31" y="388.45" width="40.07" height="60.1" rx="20.03" transform="translate(-176.03 411.03) rotate(-45)"/><path d="M668,690.63c0-54.42,39.48-100.72,94.6-118a159.87,159.87,0,0,0-47.09-7c-78.58,0-142.29,56-142.29,125.18S636.93,816,715.51,816a159.78,159.78,0,0,0,47.69-7.21C707.76,791.68,668,745.25,668,690.63Z" transform="translate(0 -1)"/><path class="cls-1" d="M851.77,145.68A498.41,498.41,0,0,0,500,1C223.86,1,0,224.86,0,501A498.41,498.41,0,0,0,144.68,852.77Z" transform="translate(0 -1)"/><path d="M853,145.93,145.93,853A498.42,498.42,0,0,0,500,1000c276.14,0,500-223.86,500-500A498.42,498.42,0,0,0,853,145.93Z" transform="translate(0 -1)"/><circle cx="324.33" cy="331.58" r="75.46"/><rect x="303.72" y="181" width="40.07" height="60.1" rx="20.03"/><rect x="304.22" y="421.9" width="40.07" height="60.1" rx="20.03"/><rect x="414.9" y="311.72" width="60.1" height="40.07" rx="20.03"/><rect x="174" y="312.22" width="60.1" height="40.07" rx="20.03"/><rect x="379.44" y="227.62" width="60.1" height="40.07" rx="20.03" transform="translate(-55.18 361.09) rotate(-45)"/><rect x="209.46" y="398.32" width="60.1" height="40.07" rx="20.03" transform="translate(-225.67 290.89) rotate(-45)"/><rect x="218.62" y="218.46" width="40.07" height="60.1" rx="20.03" transform="translate(-105.82 240.54) rotate(-45)"/><rect x="389.31" y="388.45" width="40.07" height="60.1" rx="20.03" transform="translate(-176.03 411.03) rotate(-45)"/><path class="cls-1" d="M668,690.63c0-54.42,39.48-100.72,94.6-118a159.87,159.87,0,0,0-47.09-7c-78.58,0-142.29,56-142.29,125.18S636.93,816,715.51,816a159.78,159.78,0,0,0,47.69-7.21C707.76,791.68,668,745.25,668,690.63Z" transform="translate(0 -1)"/></svg>