<?xml version="1.0" encoding="utf-8"?>
<!-- Generator: Adobe Illustrator 25.0.0, SVG Export Plug-In . SVG Version: 6.00 Build 0)  -->
<svg version="1.1" id="Calque_1" xmlns="http://www.w3.org/2000/svg" xmlns:xlink="http://www.w3.org/1999/xlink" x="0px" y="0px"
	 viewBox="0 0 1000 1000" style="enable-background:new 0 0 1000 1000;" xml:space="preserve">
<style type="text/css">
	.st0{fill:#1E90FF;}
</style>
<g>
	<g>
		<path class="st0" d="M585,7.21"/>
	</g>
	<g>
		<path class="st0" d="M415,7.21"/>
	</g>
	<g>
		<path class="st0" d="M415,165.96"/>
	</g>
	<g>
		<path class="st0" d="M585,165.88"/>
	</g>
	<g>
		<path class="st0" d="M415,992.79"/>
	</g>
	<g>
		<path class="st0" d="M585,992.79"/>
	</g>
	<g>
		<path class="st0" d="M585,833.46"/>
	</g>
	<g>
		<path class="st0" d="M415,833.38"/>
	</g>
	<g>
		<path class="st0" d="M992.79,585"/>
	</g>
	<g>
		<path class="st0" d="M992.79,415"/>
	</g>
	<g>
		<path class="st0" d="M834,415"/>
	</g>
	<g>
		<path class="st0" d="M833.84,585"/>
	</g>
	<g>
		<path class="st0" d="M7.21,415"/>
	</g>
	<g>
		<path class="st0" d="M7.21,585"/>
	</g>
	<g>
		<path class="st0" d="M166.5,585"/>
	</g>
	<g>
		<path class="st0" d="M166.34,415"/>
	</g>
	<g>
		<path class="st0" d="M500.17,284.33c-118.93,0-215.33,96.41-215.33,215.33S381.24,715,500.17,715S715.5,618.59,715.5,499.67
			S619.09,284.33,500.17,284.33z M500,585c-46.94,0-85-38.06-85-85s38.06-85,85-85s85,38.06,85,85S546.94,585,500,585z"/>
	</g>
	<g>
		<path class="st0" d="M166.5,585H7.21C42.83,793.03,206.97,957.17,415,992.79V833.38C293.32,802.41,197.52,706.66,166.5,585z"/>
	</g>
	<g>
		<path class="st0" d="M585,833.46v159.34C793.03,957.17,957.17,793.03,992.79,585H833.84C802.79,706.77,706.84,802.59,585,833.46z"
			/>
	</g>
	<g>
		<path class="st0" d="M834,415h158.8C957.17,206.97,793.03,42.83,585,7.21v158.67C707.06,196.8,803.13,292.92,834,415z"/>
	</g>
	<g>
		<path class="st0" d="M415,165.96V7.21C206.97,42.83,42.83,206.97,7.21,415h159.13C197.18,293.03,293.1,196.97,415,165.96z"/>
	</g>
</g>
</svg>
