<svg id="Calque_1" data-name="Calque 1" xmlns="http://www.w3.org/2000/svg" viewBox="0 0 995.62 995.62"><defs><style>.cls-1{fill:#1e90ff;}</style></defs><path class="cls-1" d="M452,2.28" transform="translate(-2.19 -2.19)"/><path class="cls-1" d="M547,2.19" transform="translate(-2.19 -2.19)"/><path class="cls-1" d="M548,997.72" transform="translate(-2.19 -2.19)"/><path class="cls-1" d="M453,997.81" transform="translate(-2.19 -2.19)"/><path class="cls-1" d="M997.81,547" transform="translate(-2.19 -2.19)"/><path class="cls-1" d="M997.72,452" transform="translate(-2.19 -2.19)"/><path class="cls-1" d="M2.19,547" transform="translate(-2.19 -2.19)"/><path class="cls-1" d="M2.28,452" transform="translate(-2.19 -2.19)"/><path class="cls-1" d="M500.17,284.33c-118.93,0-215.34,96.41-215.34,215.34S381.24,715,500.17,715,715.5,618.59,715.5,499.67,619.09,284.33,500.17,284.33ZM500,585a85,85,0,1,1,85-85A85,85,0,0,1,500,585Z" transform="translate(-2.19 -2.19)"/><path class="cls-1" d="M452,193.06V2.28C214.18,24.94,24.94,214.18,2.28,452h191.2C214,318.94,319,213.78,452,193.06Z" transform="translate(-2.19 -2.19)"/><path class="cls-1" d="M548,806.33V997.72C786.16,975,975.59,785.29,997.81,547H806.91C786.51,680.33,681.26,785.71,548,806.33Z" transform="translate(-2.19 -2.19)"/><path class="cls-1" d="M193.42,547H2.19C24.44,785.63,214.37,975.56,453,997.81V806.44C319.43,786.07,213.86,680.55,193.42,547Z" transform="translate(-2.19 -2.19)"/><path class="cls-1" d="M806.86,452H997.72C975,213.84,785.29,24.41,547,2.19V192.85C680.62,213.08,786.28,318.5,806.86,452Z" transform="translate(-2.19 -2.19)"/></svg>