<svg id="Calque_2" data-name="Calque 2" xmlns="http://www.w3.org/2000/svg" xmlns:xlink="http://www.w3.org/1999/xlink" width="1453.99" height="276.49" viewBox="0 0 1453.99 276.49"><defs><style>.cls-1{fill:url(#Dégradé_sans_nom_12);}.cls-2{fill:url(#Dégradé_sans_nom_12-2);}.cls-3{fill:url(#Dégradé_sans_nom_12-3);}.cls-4{fill:url(#Dégradé_sans_nom_12-4);}.cls-5{fill:url(#Dégradé_sans_nom_12-5);}.cls-6{fill:url(#Dégradé_sans_nom_12-6);}.cls-7{fill:url(#Dégradé_sans_nom_12-7);}.cls-8{fill:url(#Dégradé_sans_nom_12-8);}.cls-9{fill:url(#Dégradé_sans_nom_12-9);}.cls-10{fill:url(#Dégradé_sans_nom_12-10);}.cls-11{fill:url(#Dégradé_sans_nom_12-11);}</style><linearGradient id="Dégradé_sans_nom_12" x1="41.28" y1="541.28" x2="1041.28" y2="-458.72" gradientUnits="userSpaceOnUse"><stop offset="0" stop-color="#833ab4"/><stop offset="0.04" stop-color="#8b38ab"/><stop offset="0.1" stop-color="#9f3391"/><stop offset="0.19" stop-color="#c12b68"/><stop offset="0.28" stop-color="#ef202f"/><stop offset="0.31" stop-color="#fd1d1d"/><stop offset="0.99" stop-color="#fcb045"/></linearGradient><linearGradient id="Dégradé_sans_nom_12-2" x1="140.25" y1="640.25" x2="1140.25" y2="-359.75" xlink:href="#Dégradé_sans_nom_12"/><linearGradient id="Dégradé_sans_nom_12-3" x1="262.29" y1="704.49" x2="1262.29" y2="-295.51" xlink:href="#Dégradé_sans_nom_12"/><linearGradient id="Dégradé_sans_nom_12-4" x1="232.76" y1="732.76" x2="1232.76" y2="-267.24" xlink:href="#Dégradé_sans_nom_12"/><linearGradient id="Dégradé_sans_nom_12-5" x1="-90.98" y1="409.02" x2="909.02" y2="-590.98" xlink:href="#Dégradé_sans_nom_12"/><linearGradient id="Dégradé_sans_nom_12-6" x1="-43.46" y1="456.54" x2="956.54" y2="-543.46" xlink:href="#Dégradé_sans_nom_12"/><linearGradient id="Dégradé_sans_nom_12-7" x1="488.27" y1="988.27" x2="1488.27" y2="-11.73" xlink:href="#Dégradé_sans_nom_12"/><linearGradient id="Dégradé_sans_nom_12-8" x1="426.64" y1="868.84" x2="1426.64" y2="-131.16" xlink:href="#Dégradé_sans_nom_12"/><linearGradient id="Dégradé_sans_nom_12-9" x1="580.79" y1="1080.79" x2="1580.79" y2="80.79" xlink:href="#Dégradé_sans_nom_12"/><linearGradient id="Dégradé_sans_nom_12-10" x1="185.94" y1="628.13" x2="1185.94" y2="-371.87" xlink:href="#Dégradé_sans_nom_12"/><linearGradient id="Dégradé_sans_nom_12-11" x1="323.73" y1="765.93" x2="1323.73" y2="-234.07" xlink:href="#Dégradé_sans_nom_12"/></defs><path class="cls-1" d="M369.69,255.9q0,28.75-6.6,45.23Q351,331.88,317.44,331.89q-23.35,0-31.92-17.58-4.63-9.53-4.63-24.54V159.59h-33.7v133.3q0,25.08,8.09,40.1,14.91,28,56.06,28,26.4,0,44.91-15.38a66.3,66.3,0,0,0,15.64-18.86l-.37,28.93h31.13V159.59h-33Z" transform="translate(-28.9 -86.71)"/><path class="cls-2" d="M605.38,225q-3.27-19.78-13.1-34.61-10.2-15.57-29.67-25.36a88.44,88.44,0,0,0-40.21-9.8q-41.13,0-66.61,29.48t-25.48,76.72q0,48,25.3,74.62t61.68,26.64A111.47,111.47,0,0,0,544,359.72q22-5.13,36.89-19.77A86.77,86.77,0,0,0,597,318.25q7.23-13.28,8.52-24.08H573.14a58.38,58.38,0,0,1-12.1,23q-15.27,17.11-40.88,17.11-27.43,0-40.52-18.09t-14-48H608.29Q608.29,238.5,605.38,225Zm-139,17q.9-25.26,16.16-41.65t37.76-16.39q31.41,0,44.85,23.8,7.26,12.82,9.26,34.24Z" transform="translate(-28.9 -86.71)"/><rect class="cls-3" x="778.64" y="73.79" width="33.51" height="195.19"/><path class="cls-4" d="M767.61,259.2q-12.32-8.05-48.51-16.67l-22.2-5.31q-14.55-3.47-22-8Q662,221.52,662,208.75q0-11.67,9.84-18.79t29-7.12q28.66,0,40.3,12.93A37.42,37.42,0,0,1,749.12,216h31.12q.38-19-12.06-35.52-19.86-26-64.76-26-34.33,0-54.65,17.21t-20.32,45.05q0,23.61,21.59,37,12.09,7.69,37.58,13.92l26.61,6.59q21.4,5.31,28.66,9.34,11.36,6.58,11.35,19.23,0,16.65-14.2,24.62t-32.89,8q-31.39,0-44.11-15.93-6.91-8.79-8.41-25.27H623q1.29,29.29,19.74,49.16t62.75,19.87q41.16,0,61.27-19t20.12-45.23Q786.84,271.84,767.61,259.2Z" transform="translate(-28.9 -86.71)"/><path class="cls-5" d="M88.78,104.84H55.45v54.75H28.9V186.5H55.45V316.32q0,18.87,8.24,30.68T95,358.8a111.92,111.92,0,0,0,13.28-.73,73.5,73.5,0,0,0,11.81-2.38V329.51c-2.44.32-4.58.53-6.41.61s-3.54.12-5.13.12q-9,0-12.81-2-7-3.48-7-13.74v-128h31.31V159.59H88.78Z" transform="translate(-28.9 -86.71)"/><path class="cls-6" d="M223.74,155.19q-19.59,0-34.6,14.19t-18.86,24.08V159.59H139v196.1h33V242.9A56,56,0,0,1,185.29,206q13.36-16,38.27-16c1.95,0,3.75.06,5.4.19a47.63,47.63,0,0,1,5.4.73V156.11q-5.31-.56-7.5-.73C225.39,155.25,224.35,155.19,223.74,155.19Z" transform="translate(-28.9 -86.71)"/><path class="cls-7" d="M1301.44,225q-3.29-19.78-13.11-34.61-10.18-15.57-29.66-25.36a88.48,88.48,0,0,0-40.22-9.8q-41.13,0-66.6,29.48t-25.48,76.72q0,48,25.29,74.62t61.69,26.64a111.38,111.38,0,0,0,26.71-2.93q22-5.13,36.89-19.77a86.55,86.55,0,0,0,16.14-21.7q7.23-13.28,8.51-24.08h-32.41a58.12,58.12,0,0,1-12.1,23q-15.25,17.11-40.88,17.11-27.42,0-40.51-18.09t-14-48h142.64Q1304.35,238.5,1301.44,225Zm-139,17q.91-25.26,16.16-41.65t37.77-16.39q31.41,0,44.84,23.8,7.27,12.82,9.27,34.24Z" transform="translate(-28.9 -86.71)"/><rect class="cls-8" x="1027.32" y="229.06" width="38.27" height="39.92"/><path class="cls-9" d="M1463.67,259.2q-12.32-8.05-48.51-16.67l-22.2-5.31q-14.55-3.47-22-8Q1358,221.52,1358,208.75q0-11.67,9.84-18.79t29-7.12q28.68,0,40.3,12.93a37.26,37.26,0,0,1,8.06,20.21h31.13q.36-19-12.07-35.52-19.85-26-64.76-26-34.32,0-54.64,17.21t-20.32,45.05q0,23.61,21.58,37,12.11,7.69,37.59,13.92l26.61,6.59q21.4,5.31,28.66,9.34,11.35,6.58,11.35,19.23,0,16.65-14.2,24.62t-32.89,8q-31.41,0-44.11-15.93-6.91-8.79-8.41-25.27H1319q1.31,29.29,19.75,49.16t62.75,19.87q41.16,0,61.27-19t20.11-45.23Q1482.89,271.84,1463.67,259.2Z" transform="translate(-28.9 -86.71)"/><rect class="cls-10" x="778.64" width="33.51" height="37.35"/><polygon class="cls-11" points="993.07 99.79 993.07 72.88 840.91 72.88 840.91 102.36 948.75 102.36 832.3 242.98 832.3 268.98 996.55 268.98 996.55 239.5 877.37 239.5 993.07 99.79"/></svg>