<svg id="Calque_1" data-name="Calque 1" xmlns="http://www.w3.org/2000/svg" viewBox="0 0 1023.06 1023.1"><defs><style>.cls-1{fill:#1e90ff;}.cls-2{fill:#fff;}</style></defs><circle class="cls-1" cx="511.52" cy="511.1" r="500"/><path class="cls-2" d="M955.44,389.36,875.3,379.17a403.09,403.09,0,0,0-24.25-58.57l49.49-63.74c20-25.79,17.69-62.19-5.2-84.36L828.2,105.36C805.82,82.26,769.41,80,743.58,100l-63.65,49.49a401.58,401.58,0,0,0-58.61-24.26l-10.19-80A63.85,63.85,0,0,0,547.78-11.1H452.29A63.85,63.85,0,0,0,388.94,45l-10.19,80.14a397.2,397.2,0,0,0-58.61,24.26L256.45,100c-25.75-20-62.15-17.69-84.36,5.2L105,172.25c-23.11,22.42-25.45,58.82-5.42,84.66L149,320.6a397.63,397.63,0,0,0-24.26,58.57l-80,10.19A63.83,63.83,0,0,0-11.52,452.7v95.49a63.85,63.85,0,0,0,56.15,63.35l80.14,10.19A402.94,402.94,0,0,0,149,680.3L99.53,744c-20,25.79-17.69,62.2,5.2,84.37l67.14,67.14c22.43,23.06,58.79,25.36,84.62,5.37l63.69-49.49a394.18,394.18,0,0,0,58.57,24.25l10.19,80A63.86,63.86,0,0,0,452.29,1012h95.49a63.85,63.85,0,0,0,63.35-56.14l10.19-80.15a402.9,402.9,0,0,0,58.57-24.25L743.62,901c25.79,20,62.2,17.69,84.36-5.2l67.14-67.14c23.11-22.42,25.45-58.79,5.42-84.62L851.05,680.3a394.18,394.18,0,0,0,24.25-58.57l80-10.19a63.85,63.85,0,0,0,56.27-63.35V452.7a63.74,63.74,0,0,0-56.1-63.34ZM500,713.59c-117.53,0-213.15-95.61-213.15-213.14S382.51,287.3,500,287.3s213.14,95.62,213.14,213.15S617.56,713.59,500,713.59Z" transform="translate(11.52 11.1)"/></svg>