<svg id="Calque_1" data-name="Calque 1" xmlns="http://www.w3.org/2000/svg" viewBox="0 0 1000 1000"><defs><style>.cls-1{fill:#1e90ff;}.cls-2{fill:#fff;}</style></defs><circle class="cls-1" cx="500" cy="500" r="500"/><path class="cls-2" d="M772.93,433.88l-48-6.11a240.73,240.73,0,0,0-14.54-35.1L740,354.48c12-15.46,10.6-37.27-3.12-50.56l-40.23-40.23A38.08,38.08,0,0,0,646,260.44L607.83,290.1a241.12,241.12,0,0,0-35.12-14.53l-6.11-47.95a38.25,38.25,0,0,0-38-33.72H471.42a38.26,38.26,0,0,0-38,33.64l-6.1,48a238.4,238.4,0,0,0-35.13,14.53l-38.16-29.66c-15.43-12-37.25-10.6-50.56,3.12l-40.23,40.21A38.08,38.08,0,0,0,260,354.5l29.66,38.17a238.5,238.5,0,0,0-14.53,35.1l-47.95,6.11a38.25,38.25,0,0,0-33.72,38v57.22a38.25,38.25,0,0,0,33.64,38l48,6.11a241.61,241.61,0,0,0,14.53,35.1L260,646.42c-12,15.45-10.6,37.27,3.12,50.55l40.23,40.24a38.11,38.11,0,0,0,50.71,3.22l38.17-29.66a235.28,235.28,0,0,0,35.1,14.53l6.1,47.93a38.27,38.27,0,0,0,38,33.77h57.22a38.25,38.25,0,0,0,38-33.64l6.11-48a241.65,241.65,0,0,0,35.1-14.54L646,740.45c15.45,12,37.27,10.6,50.55-3.11l40.24-40.24A38.06,38.06,0,0,0,740,646.39l-29.66-38.16a237.27,237.27,0,0,0,14.54-35.1L772.83,567a38.25,38.25,0,0,0,33.72-38V471.84a38.2,38.2,0,0,0-33.62-38ZM500,628.18A127.73,127.73,0,1,1,627.76,500.45,127.88,127.88,0,0,1,500,628.18Z" transform="translate(0 0)"/></svg>