<svg id="Calque_1" data-name="Calque 1" xmlns="http://www.w3.org/2000/svg" viewBox="0 0 1000 1000"><defs><style>.cls-1{fill:#1e90ff;}.cls-2{fill:#fff;}</style></defs><circle class="cls-1" cx="500" cy="500" r="500"/><path class="cls-2" d="M845.45,416.19l-60.79-7.73A305.61,305.61,0,0,0,766.26,364l37.54-48.34c15.2-19.56,13.42-47.17-3.94-64l-50.93-50.93c-17-17.52-44.58-19.27-64.18-4.1l-48.27,37.53A304.56,304.56,0,0,0,592,215.82l-7.73-60.69a48.42,48.42,0,0,0-48-42.68H463.82A48.42,48.42,0,0,0,415.77,155L408,215.82a301.28,301.28,0,0,0-44.46,18.39l-48.3-37.53c-19.53-15.17-47.15-13.42-64,3.94l-50.93,50.89c-17.52,17-19.3,44.62-4.1,64.22L233.8,364a301.22,301.22,0,0,0-18.4,44.43l-60.69,7.73a48.42,48.42,0,0,0-42.68,48v72.43a48.42,48.42,0,0,0,42.58,48.05l60.79,7.73a305.49,305.49,0,0,0,18.4,44.42L196.26,685.2c-15.2,19.56-13.42,47.18,3.94,64l50.93,50.93c17,17.49,44.58,19.23,64.18,4.07l48.31-37.54A298.51,298.51,0,0,0,408,785.05l7.73,60.66a48.43,48.43,0,0,0,48.05,42.74h72.42a48.42,48.42,0,0,0,48-42.58L592,785.08a305.61,305.61,0,0,0,44.43-18.4l48.33,37.54c19.57,15.2,47.18,13.42,64-3.94l50.93-50.93c17.52-17,19.3-44.59,4.1-64.18l-37.54-48.31a297.89,297.89,0,0,0,18.4-44.42l60.66-7.73A48.42,48.42,0,0,0,888,536.66V464.23a48.37,48.37,0,0,0-42.55-48ZM500,662.12c-89.14,0-161.67-72.53-161.67-161.67S410.89,338.78,500,338.78,661.7,411.3,661.7,500.45,589.17,662.12,500,662.12Z" transform="translate(0 0)"/></svg>