<svg id="Calque_1" data-name="Calque 1" xmlns="http://www.w3.org/2000/svg" viewBox="0 0 1000 1000"><defs><style>.cls-1{fill:#1e90ff;}.cls-2{fill:#fff;}</style></defs><circle class="cls-1" cx="500" cy="500" r="500"/><path class="cls-2" d="M446.81,555.29a201.7,201.7,0,0,0,43.12-36.23l45.35,26.19,41.29-71.52L531.31,447.6a199.21,199.21,0,0,0,9.78-55.52L592.57,383l-14.34-81.33-51.48,9.08A200.49,200.49,0,0,0,498.52,262l33.65-40.1L468.9,168.81l-33.62,40.06a198.54,198.54,0,0,0-52.95-19.32V137.29H299.75v52.26a198.41,198.41,0,0,0-52.95,19.32l-33.62-40.06-63.27,53.08L183.56,262a200.16,200.16,0,0,0-28.23,48.76l-51.48-9.08L89.51,383,141,392.08a199.14,199.14,0,0,0,9.78,55.52L105.5,473.73l41.3,71.52,45.35-26.18a201.5,201.5,0,0,0,43.12,36.23l-17.9,49.17L295,632.71l17.87-49.11a199.67,199.67,0,0,0,56.38,0l17.88,49.12,77.6-28.25ZM341,490.89A105.47,105.47,0,1,1,446.5,385.42,105.58,105.58,0,0,1,341,490.89Z" transform="translate(0 0)"/><path class="cls-2" d="M801.78,617.31l-35.6,11.51A143.4,143.4,0,0,0,741.34,597l19.89-31.75L711.14,533.9l-19.89,31.73a141.84,141.84,0,0,0-39.44-8.47l-5.17-37-58.55,8.16,5.17,37.05a142.62,142.62,0,0,0-35.64,18.93l-27.79-25.08-39.61,43.88L518,628.17a143,143,0,0,0-15.19,37.36l-37.4-1.35-2.14,59.07,37.39,1.36A142.5,142.5,0,0,0,513.13,763l-29.51,23L520,832.63l29.56-23A144.59,144.59,0,0,0,583.68,831l-7.84,36.64L633.65,880l7.83-36.58a143.6,143.6,0,0,0,40-5.58L699,870.9l52.22-27.7-17.55-33.09a144.73,144.73,0,0,0,27-30l34.73,14.08,22.21-54.78L782.93,725.4a143.4,143.4,0,0,0,1.44-40.33L820,673.55ZM652.31,774.89a75.5,75.5,0,1,1,64.35-85.19A75.58,75.58,0,0,1,652.31,774.89Z" transform="translate(0 0)"/><path class="cls-2" d="M881.53,412.44l1.38-46.65-29.52-.88a112.92,112.92,0,0,0-10-30.25l23.19-18.32-28.93-36.61L814.46,298a113.16,113.16,0,0,0-27.12-16.7l6-29-45.69-9.47-6,29a111.85,111.85,0,0,0-31.52,4.57l-14-26L655,272.56l14,26a112.26,112.26,0,0,0-21.17,23.8L620.4,311.43,603.14,354.8l27.48,10.94a112.93,112.93,0,0,0-1,31.82l-28,9.28,14.64,44.31,28-9.27a113.08,113.08,0,0,0,19.75,25L648.53,492l39.7,24.52,15.55-25.17A113.85,113.85,0,0,0,735,497.82l4.26,29.27,46.19-6.74-4.26-29.23a115,115,0,0,0,14.56-6.56A112.5,112.5,0,0,0,809.19,476l22.06,19.65,31-34.85-22.08-19.67A113.85,113.85,0,0,0,852,411.56Zm-111.21,25a59.6,59.6,0,1,1,24.22-80.73A59.67,59.67,0,0,1,770.32,437.43Z" transform="translate(0 0)"/></svg>