<svg id="Calque_2" data-name="Calque 2" xmlns="http://www.w3.org/2000/svg" xmlns:xlink="http://www.w3.org/1999/xlink" width="1481.92" height="256.06" viewBox="0 0 1481.92 256.06"><defs><style>.cls-1{fill:url(#Dégradé_sans_nom_12);}.cls-2{fill:url(#Dégradé_sans_nom_12-2);}.cls-3{fill:url(#Dégradé_sans_nom_12-3);}.cls-4{fill:url(#Dégradé_sans_nom_12-4);}.cls-5{fill:url(#Dégradé_sans_nom_12-5);}.cls-6{fill:url(#Dégradé_sans_nom_12-6);}.cls-7{fill:url(#Dégradé_sans_nom_12-7);}.cls-8{fill:url(#Dégradé_sans_nom_12-8);}.cls-9{fill:url(#Dégradé_sans_nom_12-9);}.cls-10{fill:url(#Dégradé_sans_nom_12-10);}.cls-11{fill:url(#Dégradé_sans_nom_12-11);}</style><linearGradient id="Dégradé_sans_nom_12" x1="240.79" y1="740.79" x2="1240.79" y2="-259.21" gradientUnits="userSpaceOnUse"><stop offset="0" stop-color="#833ab4"/><stop offset="0.04" stop-color="#8b38ab"/><stop offset="0.1" stop-color="#9f3391"/><stop offset="0.19" stop-color="#c12b68"/><stop offset="0.28" stop-color="#ef202f"/><stop offset="0.31" stop-color="#fd1d1d"/><stop offset="0.99" stop-color="#fcb045"/></linearGradient><linearGradient id="Dégradé_sans_nom_12-2" x1="293.71" y1="700.07" x2="1293.71" y2="-299.93" xlink:href="#Dégradé_sans_nom_12"/><linearGradient id="Dégradé_sans_nom_12-3" x1="151.46" y1="651.46" x2="1151.46" y2="-348.54" xlink:href="#Dégradé_sans_nom_12"/><linearGradient id="Dégradé_sans_nom_12-4" x1="-38.41" y1="461.59" x2="961.59" y2="-538.41" xlink:href="#Dégradé_sans_nom_12"/><linearGradient id="Dégradé_sans_nom_12-5" x1="52.4" y1="552.4" x2="1052.4" y2="-447.6" xlink:href="#Dégradé_sans_nom_12"/><linearGradient id="Dégradé_sans_nom_12-6" x1="-91.77" y1="408.23" x2="908.23" y2="-591.77" xlink:href="#Dégradé_sans_nom_12"/><linearGradient id="Dégradé_sans_nom_12-7" x1="225.78" y1="632.14" x2="1225.78" y2="-367.86" xlink:href="#Dégradé_sans_nom_12"/><linearGradient id="Dégradé_sans_nom_12-8" x1="355.83" y1="762.19" x2="1355.83" y2="-237.81" xlink:href="#Dégradé_sans_nom_12"/><linearGradient id="Dégradé_sans_nom_12-9" x1="588.89" y1="1088.89" x2="1588.89" y2="88.89" xlink:href="#Dégradé_sans_nom_12"/><linearGradient id="Dégradé_sans_nom_12-10" x1="499.56" y1="999.56" x2="1499.56" y2="-0.44" xlink:href="#Dégradé_sans_nom_12"/><linearGradient id="Dégradé_sans_nom_12-11" x1="450.68" y1="857.04" x2="1450.68" y2="-142.96" xlink:href="#Dégradé_sans_nom_12"/></defs><path class="cls-1" d="M740.79,245.18q-43-9.42-50.12-13.3-7.09-3.7-7.1-12,0-6.57,6.67-11.46t22.38-4.88q19.1,0,27,9.77,4.22,5.39,5.23,14.65h48q-3.21-33.69-24.9-47.42t-56.13-13.73q-36.3,0-56.3,18.28t-20,43.71q0,21.57,12.8,33,12.81,11.63,44.1,19.37,43.49,10.29,50.23,14.49a13.62,13.62,0,0,1,6.75,12.3q0,8.43-8.38,12.63t-22.6,4.22q-24.19,0-33.17-9.61-5.09-5.38-6.6-18.19H630q0,28.31,20.68,46.58t64.06,18.28q42.53,0,62.87-17.27T798,300.1q0-20.72-14.15-34.53Q769.49,251.92,740.79,245.18Z" transform="translate(-12.23 -105.87)"/><rect class="cls-2" x="811.42" y="66.2" width="48.68" height="183.62"/><path class="cls-3" d="M611.32,203q-12.52-18.56-31.73-27.17t-43.19-8.6q-40.36,0-65.66,25.46t-25.29,73.17q0,50.93,28,73.51t64.67,22.6q44.42,0,69.08-26.79Q623.09,318.3,625,302H576a40.46,40.46,0,0,1-9.88,12.63Q555.87,323,539.47,323,524,323,513,316.11,494.91,305,493.79,277.36H627.53q.36-23.79-1.58-36.44Q622.59,219.32,611.32,203ZM495,245.69q2.63-17.94,12.79-28.42t28.66-10.49q17,0,28.48,9.9t12.79,29Z" transform="translate(-12.23 -105.87)"/><path class="cls-4" d="M235.36,167.69q-21.57,0-35,11.29-8.25,6.74-19.37,25.1v-32H135.13V355.69h48.35V267.93q0-22.08,5.56-32.68Q199,216.38,228,216.38c1.46,0,3.37.06,5.73.17s5,.33,8.08.67V168c-2.13-.11-3.51-.19-4.12-.25S236.26,167.69,235.36,167.69Z" transform="translate(-12.23 -105.87)"/><path class="cls-5" d="M374.94,272q0,17.68-4.7,28.47-9,19.88-33.52,19.88-19.11,0-25.65-14-3.68-7.9-3.68-23.58V172.07H258.2V282.75q0,31.5,7.89,47.67,14.12,29.31,54.76,29.32,14.11,0,24.61-3.71t21.76-13.81a34,34,0,0,0,6.38-7.42c1.79-2.8,2.91-4.49,3.36-5.05v25.94h46.66V172.07H374.94Z" transform="translate(-12.23 -105.87)"/><path class="cls-6" d="M85.34,122.55H37.84v51.21H12.23V208H37.84V321q0,17.19,8.08,25.44,12.46,13,46.5,11.79l22.74-.84V321.5c-1.58.11-3.18.19-4.8.25s-3.18.08-4.64.08q-14.65,0-17.52-2.78T85.34,305V208h29.82v-34.2H85.34Z" transform="translate(-12.23 -105.87)"/><rect class="cls-7" x="811.42" width="48.68" height="44.3"/><polygon class="cls-8" points="1031.02 106.13 1031.02 66.2 885.81 66.2 885.81 105.29 970.42 105.29 879.41 212.42 879.41 249.82 1034.22 249.82 1034.22 210.4 940.92 210.4 1031.02 106.13"/><path class="cls-9" d="M1437,245.18q-43-9.42-50.12-13.3-7.11-3.7-7.1-12,0-6.57,6.67-11.46t22.38-4.88q19.1,0,27,9.77,4.23,5.39,5.24,14.65h48q-3.21-33.69-24.9-47.42t-56.13-13.73q-36.3,0-56.31,18.28t-20,43.71q0,21.57,12.8,33,12.81,11.63,44.1,19.37,43.47,10.29,50.23,14.49a13.62,13.62,0,0,1,6.75,12.3q0,8.43-8.38,12.63t-22.6,4.22q-24.2,0-33.17-9.61-5.09-5.38-6.6-18.19H1326.2q0,28.31,20.68,46.58t64.06,18.28q42.52,0,62.87-17.27t20.34-44.56q0-20.72-14.15-34.53Q1465.69,251.92,1437,245.18Z" transform="translate(-12.23 -105.87)"/><path class="cls-10" d="M1307.52,203q-12.52-18.56-31.73-27.17t-43.19-8.6q-40.36,0-65.66,25.46t-25.29,73.17q0,50.93,28,73.51t64.67,22.6q44.42,0,69.08-26.79,15.87-16.84,17.8-33.18h-49a40.46,40.46,0,0,1-9.88,12.63q-10.26,8.43-26.66,8.42-15.48,0-26.47-6.9Q1191.11,305,1190,277.36h133.74q.35-23.79-1.58-36.44Q1318.79,219.32,1307.52,203Zm-116.35,42.73q2.63-17.94,12.79-28.42t28.66-10.49q17,0,28.48,9.9t12.79,29Z" transform="translate(-12.23 -105.87)"/><rect class="cls-11" x="1057.56" y="199.45" width="51.04" height="50.37"/></svg>