<svg id="Calque_1" data-name="Calque 1" xmlns="http://www.w3.org/2000/svg" viewBox="0 0 1000 1000"><defs><style>.cls-1{fill:#bb2124;}</style></defs><path class="cls-1" d="M500,0C223.86,0,0,223.86,0,500s223.86,500,500,500,500-223.86,500-500S776.14,0,500,0Zm2.24,964.59h-1.3c-44.06,0-75.17-35-75.17-80.35,0-48,32.4-81.65,76.47-81.65,46.65,0,76.46,33.7,76.46,81.65C578.7,929.6,548.89,964.59,502.24,964.59Zm124.41-487.3C569.63,546,548.89,603,552.78,669.1l1.3,32.4H453l-2.59-32.4c-7.78-70,15.55-146.45,80.35-224.21,58.32-70,90.72-119.23,90.72-177.55,0-66.1-41.47-111.46-123.12-111.46-46.66,0-98.5,14.26-130.9,40.18l-31.1-81.65C379.12,82,453,61.27,521.68,61.27c149,0,216.43,93.32,216.43,191.81C738.11,339.92,688.86,404.72,626.65,477.29Z"/></svg>