<svg id="Calque_1" data-name="Calque 1" xmlns="http://www.w3.org/2000/svg" viewBox="0 0 1000 951.84"><defs><style>.cls-1{fill:#bb2124;}</style></defs><path class="cls-1" d="M1000,500c0-198.23-115.36-369.52-282.62-450.39,39.79,42,58.72,97.42,58.72,154.33,0,103.26-58.56,180.31-132.54,266.61C575.76,552.23,551.1,620,555.72,698.63l1.54,38.53H437.06L434,698.63c-9.25-83.22,18.49-174.14,95.54-266.61C598.87,348.81,637.4,290.25,637.4,220.9c0-78.6-49.32-132.54-146.4-132.54-55.48,0-117.13,17-155.65,47.78L299.43,41.86C123.14,119.14,0,295.19,0,500,0,745.87,177.47,950.29,411.3,992.16a107.72,107.72,0,0,1-6.6-37.71c0-57,38.52-97.09,90.92-97.09,55.48,0,90.92,40.07,90.92,97.09a109.26,109.26,0,0,1-7,39.25C817.88,955.59,1000,749.07,1000,500Z" transform="translate(0 -41.86)"/></svg>