<svg id="Calque_1" data-name="Calque 1" xmlns="http://www.w3.org/2000/svg" viewBox="0 0 961.45 961.46"><path d="M847.93,589.15a356.17,356.17,0,0,0,6.78-143.74l126.18-45.07L935.13,272.1,808.94,317.2a351.88,351.88,0,0,0-96.1-106.84l57-120.86L646.73,31.19,589.68,151.78A354.57,354.57,0,0,0,445.94,145l-45-126L272.6,64.71l45,126A357.37,357.37,0,0,0,210.75,287L90,230l-58.3,122.9,120.48,57.5a359.76,359.76,0,0,0-6.74,143.74l-126,44.93,45.77,128.3,125.92-45a365.27,365.27,0,0,0,96.21,107L230.41,910l122.94,58.32,57.29-120.61a358.33,358.33,0,0,0,143.74,6.93l45,125.79,128.25-45.75-45-126a359.79,359.79,0,0,0,106.84-96.39l120.48,57,58.6-123Zm-297.77,50.5a148.63,148.63,0,1,1,89.82-190l0,.12a148.81,148.81,0,0,1-89.86,189.93Z" transform="translate(-19.44 -18.94)"/></svg>