<svg id="Calque_1" data-name="Calque 1" xmlns="http://www.w3.org/2000/svg" viewBox="0 0 1000 1000"><defs><style>.cls-1{fill:#f0ad4e;}</style></defs><path class="cls-1" d="M500,0C223.86,0,0,223.86,0,500s223.86,500,500,500,500-223.86,500-500S776.14,0,500,0ZM834.78,693H165.89V584H834.78Zm0-276.11q-47.47,37.32-92.72,54.72A263.13,263.13,0,0,1,646.83,489q-57,0-128.45-31.92-13.92-6.25-20.89-8.77Q448.76,427,416.17,419.52A288.56,288.56,0,0,0,351.31,412a242.67,242.67,0,0,0-94.61,18.67q-44.62,18.68-90.81,59.17V379.73q49.37-37.92,95.55-55.32T360.17,307a305.79,305.79,0,0,1,65.18,6.89q31.63,6.89,79.11,26.92,6.32,2.51,20.25,9.38Q598.11,384,657,384q44.29,0,87.64-19t90.18-58.86Z"/></svg>