<svg xmlns="http://www.w3.org/2000/svg" viewBox="0 0 703.35 250.46"><defs><style>.cls-1{fill:#fff;}</style></defs><g id="Draw"><path d="M400.23,98.54h-8.1v-8q-8.91,9.79-20.5,9.8a26.58,26.58,0,0,1-19.85-8.55,28.36,28.36,0,0,1-8.25-20.4,27.9,27.9,0,0,1,8.3-20.3,27.31,27.31,0,0,1,20.25-8.45q11.94,0,20.05,9.7V44h8.1Zm-28-5.9a19.53,19.53,0,0,0,14.3-6,20.29,20.29,0,0,0,6-15,20.64,20.64,0,0,0-5.9-15,19.43,19.43,0,0,0-14.45-6,19.09,19.09,0,0,0-14.45,6.25,21.26,21.26,0,0,0,.1,29.5A19.24,19.24,0,0,0,372.23,92.64Z" transform="translate(-0.48 0.46)"/><path d="M440.23,44.84l-4.3,7a7.08,7.08,0,0,0-3.3-.9A7.19,7.19,0,0,0,427,54a20.18,20.18,0,0,0-3.75,8q-1.26,5-1.25,17.85v18.7h-8.4V44H422v5.9a20.91,20.91,0,0,1,5.05-5.5,9.8,9.8,0,0,1,5.8-1.8A15.89,15.89,0,0,1,440.23,44.84Z" transform="translate(-0.48 0.46)"/><path d="M498.13,98.54h-8.2v-26q0-9-.85-12.25a16.12,16.12,0,0,0-2.5-5.5,10,10,0,0,0-4.2-3.35,15.7,15.7,0,0,0-6.2-1.1,15.44,15.44,0,0,0-7.15,1.8,17.9,17.9,0,0,0-6,5,18.65,18.65,0,0,0-3.45,6.8q-1,3.6-.95,14.4v20.2h-8.3V44h8.3v8.2q8.1-9.6,19.2-9.6a19.57,19.57,0,0,1,10.7,3,18.82,18.82,0,0,1,7.2,8.4q2.4,5.35,2.4,16.45Z" transform="translate(-0.48 0.46)"/><path d="M568.63,98.54h-8.1v-8q-8.91,9.79-20.5,9.8a26.58,26.58,0,0,1-19.85-8.55,28.36,28.36,0,0,1-8.25-20.4,27.9,27.9,0,0,1,8.3-20.3,27.31,27.31,0,0,1,20.25-8.45q11.94,0,20,9.7V44h8.1Zm-28-5.9a19.53,19.53,0,0,0,14.3-6,20.29,20.29,0,0,0,6-15,20.64,20.64,0,0,0-5.9-15,19.43,19.43,0,0,0-14.45-6,19.09,19.09,0,0,0-14.45,6.25,21.26,21.26,0,0,0,.1,29.5A19.24,19.24,0,0,0,540.63,92.64Z" transform="translate(-0.48 0.46)"/><path d="M632.63,98.54h-8.3v-8.2q-8.1,9.6-19.2,9.6a19.55,19.55,0,0,1-10.7-3,18.82,18.82,0,0,1-7.2-8.4q-2.4-5.35-2.4-16.45V44H593V70q0,9,.85,12.25a15.93,15.93,0,0,0,2.5,5.5,10,10,0,0,0,4.2,3.35,15.67,15.67,0,0,0,6.2,1.1,15.5,15.5,0,0,0,7.15-1.8,18.1,18.1,0,0,0,6-5,19,19,0,0,0,3.45-6.8q.95-3.6,1-14.4V44h8.3Z" transform="translate(-0.48 0.46)"/><path d="M703.82,98.54h-8.1v-8q-8.9,9.79-20.55,9.8a26.57,26.57,0,0,1-19.85-8.5,28.38,28.38,0,0,1-8.2-20.4,28,28,0,0,1,8.3-20.35,27.34,27.34,0,0,1,20.25-8.45q12,0,20.05,9.7V23.54h8.1Zm-28-5.9a20.66,20.66,0,0,0,20.3-20.85,21,21,0,0,0-5.75-15.1,20.29,20.29,0,0,0-29.1.2,21.26,21.26,0,0,0,.15,29.45A19.18,19.18,0,0,0,675.82,92.64Z" transform="translate(-0.48 0.46)"/><path d="M399.23,207.44A27.87,27.87,0,0,1,388,217a34.66,34.66,0,0,1-15.05,3.3q-12.6,0-21.05-8.3a27.33,27.33,0,0,1-8.45-20.3,28.09,28.09,0,0,1,8.5-20.55q8.49-8.55,22-8.55a31.61,31.61,0,0,1,14.75,3.5,26.06,26.06,0,0,1,10.55,9.8l-6.5,4.1a23,23,0,0,0-19.1-9.5,21.83,21.83,0,0,0-15.6,6,19.47,19.47,0,0,0-6.3,14.75,20.73,20.73,0,0,0,6.2,15.1,21.08,21.08,0,0,0,15.7,6.3q11.4,0,19.2-9.6Z" transform="translate(-0.48 0.46)"/><path d="M439.53,162.64a26.89,26.89,0,0,1,20.05,8.5,29.41,29.41,0,0,1,.1,40.75,28.31,28.31,0,0,1-40.35,0,29.35,29.35,0,0,1,.05-40.75A27,27,0,0,1,439.53,162.64Zm0,49.8a19,19,0,0,0,14.15-6.05,20.24,20.24,0,0,0,5.85-14.6,20.78,20.78,0,0,0-5.95-14.8,19,19,0,0,0-28.15,0,20.88,20.88,0,0,0-5.9,14.85,20.42,20.42,0,0,0,5.7,14.6A18.89,18.89,0,0,0,439.53,212.44Z" transform="translate(-0.48 0.46)"/><path d="M508,162.64a26.89,26.89,0,0,1,20.05,8.5,29.41,29.41,0,0,1,.1,40.75,28.31,28.31,0,0,1-40.35,0,29.35,29.35,0,0,1,.05-40.75A27,27,0,0,1,508,162.64Zm0,49.8a19,19,0,0,0,14.15-6.05,20.24,20.24,0,0,0,5.85-14.6,20.78,20.78,0,0,0-5.95-14.8,19,19,0,0,0-28.15,0,20.88,20.88,0,0,0-5.9,14.85,20.42,20.42,0,0,0,5.7,14.6A18.89,18.89,0,0,0,508,212.44Z" transform="translate(-0.48 0.46)"/><path d="M557.83,218.54h-8.2v-75h8.2Z" transform="translate(-0.48 0.46)"/><path d="M302,202.44a6.72,6.72,0,1,1-6.7,6.7,6.35,6.35,0,0,1,2-4.75A6.51,6.51,0,0,1,302,202.44Z" transform="translate(-0.48 0.46)"/></g><g id="Logo"><ellipse cx="126.37" cy="125.23" rx="126.37" ry="125.23"/><path class="cls-1" d="M194.6,50.42h-3.34a15.07,15.07,0,0,0-15.07,15.07v7.73a81.18,81.18,0,0,1,0,105.75v7.4a15.07,15.07,0,0,0,15.07,15.07h3.34a15.08,15.08,0,0,0,15.08-15.07V65.49A15.07,15.07,0,0,0,194.6,50.42Z" transform="translate(-0.48 0.46)"/><path class="cls-1" d="M128.89,172.26a48.45,48.45,0,1,1,6.48-89.9l19.88-19.88a75.43,75.43,0,1,0-5.71,130.42Z" transform="translate(-0.48 0.46)"/><path class="cls-1" d="M161,72,147.57,85.47c11.73,7.91,22.24,27.24,22.24,42.46,0,17.36-12.95,34.79-27.55,41.95l13.94,13.9A68.56,68.56,0,0,0,161,72Z" transform="translate(-0.48 0.46)"/></g></svg>