<svg id="Calque_1" data-name="Calque 1" xmlns="http://www.w3.org/2000/svg" viewBox="0 0 1000 991"><defs><style>.cls-1{fill:#fff;}</style></defs><ellipse cx="500" cy="495.5" rx="500" ry="495.5"/><path class="cls-1" d="M768.09,201.3h-13.2A59.66,59.66,0,0,0,695.24,261v30.58a321.22,321.22,0,0,1,0,418.42v29.27a59.65,59.65,0,0,0,59.65,59.65h13.2a59.65,59.65,0,0,0,59.65-59.65V261A59.66,59.66,0,0,0,768.09,201.3Z"/><path class="cls-1" d="M508.1,683.4a191.86,191.86,0,0,1-57.48,8.77c-105.87,0-191.69-85.82-191.69-191.69s85.82-191.69,191.69-191.69a191,191,0,0,1,83.1,18.9L612.38,249A297.11,297.11,0,0,0,451.5,202C286.64,202,153,335.64,153,500.5S286.64,799,451.5,799a297.24,297.24,0,0,0,138.29-33.92Z"/><path class="cls-1" d="M635.14,286.83,582,340c46.43,31.29,88,107.8,88,168,0,68.7-51.23,137.65-109,166l55.17,55a271.25,271.25,0,0,0,19-442.17Z"/></svg>