<svg id="Calque_1" data-name="Calque 1" xmlns="http://www.w3.org/2000/svg" viewBox="0 0 1000 1000"><defs><style>.cls-1{fill:#1e90ff;}</style></defs><path class="cls-1" d="M175.23,119.83"/><path class="cls-1" d="M103.16,195.8"/><path class="cls-1" d="M62.32,258.09"/><path class="cls-1" d="M20.92,356.43"/><path class="cls-1" d="M301.88,40.8"/><path class="cls-1" d="M251.29,66.15"/><path class="cls-1" d="M673.56,969.05q-6.82,2.52-13.73,4.86"/><path class="cls-1" d="M903.71,799.44l-2.5-1a504.26,504.26,0,0,1-51.9,59.33"/><path class="cls-1" d="M802.92,897.82a500.2,500.2,0,0,1-62.68,40.78"/><path class="cls-1" d="M969.69,328.18a494.7,494.7,0,0,1,14.89,48.16"/><path class="cls-1" d="M919.45,227.76a501.2,501.2,0,0,1,29.4,51.69"/><path class="cls-1" d="M773,286.7a75.09,75.09,0,1,0,101.71,30.52A75.16,75.16,0,0,0,773,286.7Z"/><path class="cls-1" d="M251.29,106.62V66.15a502,502,0,0,0-76.06,53.68L184.58,131A251,251,0,0,1,251.29,106.62Z"/><path class="cls-1" d="M948.81,327.56l20.88.62a497,497,0,0,0-20.84-48.73l-12.65,10A142.66,142.66,0,0,1,948.81,327.56Z"/><path class="cls-1" d="M609,914.78a182.29,182.29,0,0,1-43-27l-37.25,29L483,858.08l37.17-29a179.65,179.65,0,0,1-15.65-48.37L457.36,779l2.69-74.43,47.12,1.71a180.54,180.54,0,0,1,19.14-47.08l-35-31.64,49.91-55.28,35,31.6a179.08,179.08,0,0,1,44.89-23.85l-6.5-46.68,73.76-10.28,6.51,46.68a178.87,178.87,0,0,1,49.69,10.66l25.06-40L832.7,580l-25.07,40a180.86,180.86,0,0,1,31.3,40l44.85-14.51,22.93,70.85-44.86,14.52A180.37,180.37,0,0,1,860,781.72l41.18,16.7a501.06,501.06,0,0,0,83.37-422.08l-.33,11.1L947,386.33a143.88,143.88,0,0,1-14.8,37.27L960,448.38l-39.11,43.9-27.79-24.75a143.56,143.56,0,0,1-17,10.77,141.77,141.77,0,0,1-18.34,8.26l5.36,36.83L805,531.89,799.58,495a143.31,143.31,0,0,1-39.26-8.15l-19.59,31.72-50-30.89L710.25,456a141.89,141.89,0,0,1-24.88-31.5L650,436.21l-18.45-55.83,35.34-11.69a142.2,142.2,0,0,1,1.23-40.08l-34.62-13.79,21.74-54.63L689.86,274a141.59,141.59,0,0,1,26.67-30l-17.64-32.76,51.77-27.88,17.64,32.75A141.38,141.38,0,0,1,808,210.33l7.57-36.47,57.56,11.92-7.55,36.49a142.85,142.85,0,0,1,34.17,21l19.69-15.55C830.28,90.66,675.73,0,500,0A498.28,498.28,0,0,0,301.88,40.8h53.46v65.82A250.79,250.79,0,0,1,422,131L464.4,80.5l79.71,66.87-42.4,50.52a252.22,252.22,0,0,1,35.57,61.43l64.86-11.43,18.07,102.46-64.87,11.44A250.88,250.88,0,0,1,543,431.73l57,32.92-52,90.11-57.14-33a253.87,253.87,0,0,1-54.32,45.64l22.55,62L361.35,665l-22.52-61.88a252.51,252.51,0,0,1-71,0L245.28,665l-97.77-35.58,22.55-62a254.16,254.16,0,0,1-54.32-45.64l-57.14,33-52-90.1,57-32.92a251,251,0,0,1-12.32-69.95l-30.36-5.36A500,500,0,0,0,0,500c0,276.14,223.86,500,500,500a499.44,499.44,0,0,0,159.83-26.09l-60.7-13Z"/><path class="cls-1" d="M798,888.45l5,9.37a503,503,0,0,0,46.39-40.07l-17.35-7A182.08,182.08,0,0,1,798,888.45Z"/><path class="cls-1" d="M669.21,655.67a95.12,95.12,0,1,0,107.34,81.08A95.21,95.21,0,0,0,669.21,655.67Z"/><path class="cls-1" d="M707.25,928.67a181.12,181.12,0,0,1-25.42,1.74l-8.27,38.64a498,498,0,0,0,66.68-30.45l-8.07-15.21A180.88,180.88,0,0,1,707.25,928.67Z"/><path class="cls-1" d="M104.91,197.89l-1.75-2.09a499.18,499.18,0,0,0-40.84,62.29l7,1.24A252.06,252.06,0,0,1,104.91,197.89Z"/><circle class="cls-1" cx="303.31" cy="353.4" r="132.87"/></svg>