<svg id="Calque_1" data-name="Calque 1" xmlns="http://www.w3.org/2000/svg" viewBox="0 0 919.41 926"><polygon points="0 350 200 350 350 350 350 200 350 0 200 0 200 200 0 200 0 350"/><polygon points="568.59 0.41 569.06 200.41 569.41 350.41 719.41 350.06 919.41 349.59 919.06 199.59 719.06 200.06 718.59 0.06 568.59 0.41"/><polygon points="919.13 576.13 719.13 575.98 569.13 575.87 569.02 725.87 568.87 925.87 718.87 925.98 719.02 725.98 919.02 726.13 919.13 576.13"/><polygon points="350 926 350 726 350 576 200 576 0 576 0 726 200 726 200 926 350 926"/></svg>