<svg id="Calque_1" data-name="Calque 1" xmlns="http://www.w3.org/2000/svg" viewBox="0 0 1000 1000"><defs><style>.cls-1{fill:#fff;}</style></defs><circle class="cls-1" cx="500" cy="500" r="500"/><circle cx="500.17" cy="499.67" r="150.67"/><rect x="459" y="199" width="80" height="120" rx="40"/><rect x="460" y="680" width="80" height="120" rx="40"/><rect x="701" y="440" width="80" height="120" rx="40" transform="translate(1241 -241) rotate(90)"/><rect x="220" y="441" width="80" height="120" rx="40" transform="translate(761 241) rotate(90)"/><rect x="630.21" y="270.09" width="80" height="120" rx="40" transform="translate(429.71 -377.23) rotate(45)"/><rect x="290.79" y="610.91" width="80" height="120" rx="40" transform="translate(571.29 -37.4) rotate(45)"/><rect x="289.09" y="271.79" width="80" height="120" rx="40" transform="translate(-138.23 329.88) rotate(-45)"/><rect x="629.91" y="611.21" width="80" height="120" rx="40" transform="translate(-278.4 670.29) rotate(-45)"/></svg>